<svg xmlns="http://www.w3.org/2000/svg" xmlns:xlink="http://www.w3.org/1999/xlink" width="117.056" height="119.258" viewBox="0 0 117.056 119.258">
  <defs>
    <linearGradient id="linear-gradient" x1="0.356" y1="0.973" x2="1.356" y2="0.973" gradientUnits="objectBoundingBox">
      <stop offset="0" stop-color="#6af6e0"/>
      <stop offset="1" stop-color="#15312d"/>
    </linearGradient>
    <filter id="Elipse_12850" x="0" y="2.201" width="117.056" height="117.056" filterUnits="userSpaceOnUse">
      <feOffset dy="3" input="SourceAlpha"/>
      <feGaussianBlur stdDeviation="3" result="blur"/>
      <feFlood flood-opacity="0.161"/>
      <feComposite operator="in" in2="blur"/>
      <feComposite in="SourceGraphic"/>
    </filter>
    <clipPath id="clip-path">
      <path id="path4548" d="M0-682.665H69.132v69.132H0Z" transform="translate(0 682.665)"/>
    </clipPath>
  </defs>
  <g id="Grupo_1107593" data-name="Grupo 1107593" transform="translate(-1190.328 -143.507)">
    <g id="Grupo_1107022" data-name="Grupo 1107022" transform="translate(12774.128 11902.507)">
      <path id="Trazado_906881" data-name="Trazado 906881" d="M554.771-77.408a57.592,57.592,0,0,0,50.057,64.257,58.436,58.436,0,0,0,9.888.382,57.567,57.567,0,0,0,54.37-50.438,57.592,57.592,0,0,0-50.056-64.257A57.592,57.592,0,0,0,554.771-77.408ZM656.386-64.784A44.8,44.8,0,0,1,606.4-25.838a44.811,44.811,0,0,1-38.945-49.994,44.8,44.8,0,0,1,49.993-38.933A44.79,44.79,0,0,1,656.386-64.784Z" transform="translate(-12137.325 -11631.091)" fill="url(#linear-gradient)"/>
      <g transform="matrix(1, 0, 0, 1, -11583.8, -11759)" filter="url(#Elipse_12850)">
        <circle id="Elipse_12850-2" data-name="Elipse 12850" cx="49.528" cy="49.528" r="49.528" transform="translate(9 8.2)" fill="#fff"/>
      </g>
    </g>
    <g id="g4542" transform="translate(1214.868 845.432)">
      <g id="g4544" transform="translate(0 -682.665)">
        <g id="g4546" clip-path="url(#clip-path)">
          <g id="g4552" transform="translate(-70.82 72.845)">
            <path id="path4554" d="M-566.986-424.9a33.545,33.545,0,0,1-44.657,16.01,33.545,33.545,0,0,1-16.01-44.657A33.545,33.545,0,0,1-583-469.553a33.545,33.545,0,0,1,16.01,44.657" transform="translate(630.873 472.772)" fill="#bb8af9"/>
          </g>
        </g>
      </g>
      <g id="g4556" transform="translate(0 -682.665)">
        <g id="g4558" clip-path="url(#clip-path)">
          <g id="g4564" transform="translate(2.8 36.921)">
            <path id="path4566" d="M0-125.355c0,7.8,13.851,8.839,30.938,8.839s30.938-1.038,30.938-8.839S48.025-139.48,30.938-139.48,0-133.156,0-125.355" transform="translate(0 139.48)" fill="#4e6665"/>
          </g>
          <g id="g4568" transform="translate(2.8 36.921)">
            <path id="path4570" d="M-549.139-125.354c0-7.8-13.851-14.125-30.938-14.125q-1.74,0-3.432.087c15.471.78,27.506,6.767,27.506,14.038,0,.012,0,.024,0,.036a3.675,3.675,0,0,1-2.974,3.563c-5.526,1.1-12.943,1.334-21.1,1.334-15.591,0-28.486-.865-30.624-6.944a6.713,6.713,0,0,0-.314,2.011c0,7.8,13.851,8.839,30.938,8.839s30.938-1.038,30.938-8.839" transform="translate(611.014 139.478)" fill="#3f4f4f"/>
          </g>
          <g id="g4572" transform="translate(6.398 23.762)">
            <path id="path4574" d="M0-103.213c0,6.423,11.4,9.1,25.473,9.1s25.473-2.682,25.473-9.1-11.4-11.63-25.473-11.63S0-109.635,0-103.213" transform="translate(0 114.842)" fill="#4e6665"/>
          </g>
          <g id="g4576" transform="translate(6.398 23.762)">
            <path id="path4578" d="M-226.07,0q-1.746,0-3.432.105c12.445.765,22.041,5.633,22.041,11.524q0,.107,0,.213a4.883,4.883,0,0,1-3.9,4.535,73.443,73.443,0,0,1-14.708,1.283c-12.909,0-23.574-2.258-25.244-7.593a5.518,5.518,0,0,0-.229,1.561c0,6.423,11.4,9.1,25.473,9.1s25.473-2.682,25.473-9.1S-212,0-226.07,0" transform="translate(251.543)" fill="#3f4f4f"/>
          </g>
          <g id="g4580" transform="translate(15.858 12.81)">
            <path id="path4582" d="M0-78.451c0,4.882,8.668,6.92,19.362,6.92s19.362-2.038,19.362-6.92-8.669-8.84-19.362-8.84S0-83.333,0-78.451" transform="translate(0 87.29)" fill="#4e6665"/>
          </g>
          <g id="g4584" transform="translate(15.858 12.81)">
            <path id="path4586" d="M-171.832,0c-1.171,0-2.318.048-3.432.138,9.056.74,15.93,4.354,15.93,8.7A3.826,3.826,0,0,1-160,11.013a4.551,4.551,0,0,1-3.161,1.936,63.207,63.207,0,0,1-8.668.54c-9.838,0-17.961-1.725-19.2-5.8a4.187,4.187,0,0,0-.164,1.153c0,4.882,8.668,6.92,19.362,6.92s19.362-2.038,19.362-6.92S-161.139,0-171.832,0" transform="translate(191.194)" fill="#3f4f4f"/>
          </g>
          <g id="g4588" transform="translate(20.422 3.887)">
            <path id="path4590" d="M0-64.595c0,4.02,5.553,4.407,12.4,4.407s12.4-.388,12.4-4.407-5.553-7.278-12.4-7.278S0-68.615,0-64.595" transform="translate(0 71.873)" fill="#4e6665"/>
          </g>
          <g id="g4592" transform="translate(20.422 3.887)">
            <path id="path4594" d="M-110.08,0a20.664,20.664,0,0,0-3.432.282c5.181.874,8.972,3.675,8.972,7,0,.011,0,.023,0,.034a2.67,2.67,0,0,1-2.6,2.627c-.943.028-1.927.036-2.941.036-6.344,0-11.575-.333-12.314-3.575a4.361,4.361,0,0,0-.09.878c0,4.02,5.553,4.407,12.4,4.407s12.4-.388,12.4-4.407S-103.23,0-110.08,0" transform="translate(122.484)" fill="#3f4f4f"/>
          </g>
          <g id="g4596" transform="translate(45.736 34.561)">
            <path id="path4598" d="M-75.419-55.63A4.474,4.474,0,0,0-79.341-61.9l-.139,0-.139,0a4.474,4.474,0,0,0-3.922,6.266l1.761,4.064h4.6Z" transform="translate(83.917 61.899)" fill="#48c1ec"/>
          </g>
          <g id="g4600" transform="translate(52.511 40.72)">
            <path id="path4602" d="M-52.553-78.653a4.474,4.474,0,0,0,4.639-5.756q-.021-.066-.044-.132t-.048-.131a4.474,4.474,0,0,0-7.2-1.657l-3.265,2.993,1.505,4.349Z" transform="translate(58.475 87.515)" fill="#48c1ec"/>
          </g>
          <g id="g4604" transform="translate(37.081 40.72)">
            <path id="path4606" d="M-42.984-78.653a4.474,4.474,0,0,1-4.639-5.756c.014-.044.028-.088.044-.132s.031-.088.047-.131a4.474,4.474,0,0,1,7.2-1.657l3.265,2.993-1.505,4.349Z" transform="translate(47.827 87.515)" fill="#48c1ec"/>
          </g>
          <g id="g4608" transform="translate(50.175 49.264)">
            <path id="path4610" d="M-6.951-61.3A4.474,4.474,0,0,0-.216-58.249l.117-.075L.016-58.4a4.475,4.475,0,0,0-.2-7.39L-3.9-68.2l-3.833,2.548Z" transform="translate(7.735 68.204)" fill="#48c1ec"/>
          </g>
          <g id="g4612" transform="translate(40.568 49.264)">
            <path id="path4614" d="M-78.288-61.3a4.474,4.474,0,0,1-6.735,3.048l-.117-.075-.115-.079a4.475,4.475,0,0,1,.2-7.39l3.716-2.41,3.833,2.548Z" transform="translate(87.109 68.204)" fill="#48c1ec"/>
          </g>
          <g id="g4616" transform="translate(45.585 43.221)">
            <path id="path4618" d="M-81.423-40.711a4.587,4.587,0,0,1-4.587,4.587A4.587,4.587,0,0,1-90.6-40.711,4.587,4.587,0,0,1-86.01-45.3a4.587,4.587,0,0,1,4.587,4.587" transform="translate(90.597 45.299)" fill="#49ab9b"/>
          </g>
          <g id="g4620" transform="translate(1.013 58.686)">
            <path id="path4622" d="M-534-58.207h-53.234a7.448,7.448,0,0,1-6.8-4.415,1.523,1.523,0,0,1,1.391-2.144h64.056a1.523,1.523,0,0,1,1.391,2.144,7.448,7.448,0,0,1-6.8,4.415" transform="translate(594.17 64.765)" fill="#235f75"/>
          </g>
          <g id="g4624" transform="translate(0.001 2.874)">
            <path id="path4626" d="M-595.145-510.686a6.442,6.442,0,0,1-5.878,3.815h-53.234a6.442,6.442,0,0,1-5.878-3.815.5.5,0,0,1,.038-.486.5.5,0,0,1,.428-.233h64.056a.5.5,0,0,1,.428.233.5.5,0,0,1,.038.486m-60.845-5.24a4.8,4.8,0,0,1-2.4-4.132c0-3.124,2.645-6.16,7.46-8.582a23.287,23.287,0,0,0,2.278.854c4.486,1.434,10.822,2.192,18.321,2.192q.561,0,1.117-.006a1.013,1.013,0,0,0,1-1.023,1.013,1.013,0,0,0-1.012-1h-.011q-.545.006-1.1.006c-7.292,0-13.415-.724-17.7-2.1-4.483-1.433-6.757-3.45-6.757-6,0-3.431,4.136-6.771,10.827-8.769a15.472,15.472,0,0,0,2.983,1.282,48.277,48.277,0,0,0,14,1.677,48.62,48.62,0,0,0,13.9-1.646c4.59,2.015,7.214,4.72,7.214,7.456a4.07,4.07,0,0,1-.838,2.483,5.543,5.543,0,0,0-.742-1.807,5.413,5.413,0,0,0-4.409-2.517c-.113,0-.231,0-.34,0a5.414,5.414,0,0,0-4.411,2.517,5.522,5.522,0,0,0-.5,4.934,5.522,5.522,0,0,0-4.836-1.144,5.415,5.415,0,0,0-3.822,3.346c-.02.052-.093.263-.11.318a5.414,5.414,0,0,0,.936,4.992,5.523,5.523,0,0,0,4.327,2.093c.139,0,.9-.053.9-.053l-.415.269a5.489,5.489,0,0,0-2.5,4.156,5.472,5.472,0,0,0,.44,2.693h-26.579a19.512,19.512,0,0,1-7.221-2.5m50.245-12.526a3.5,3.5,0,0,1,3.177-.823,3.347,3.347,0,0,1,2.4,2.094c.013.033.061.171.072.206a3.347,3.347,0,0,1-.59,3.126,3.5,3.5,0,0,1-3.007,1.317l-2.765-.209q.027-.274.027-.555a5.572,5.572,0,0,0-1.184-3.44Zm4.331,12.826q0-.247-.021-.5a5.489,5.489,0,0,0-2.5-4.156l-.417-.27a6.35,6.35,0,0,0,.917.054,5.528,5.528,0,0,0,4.311-2.073,5.939,5.939,0,0,1,.577,2.511c0,1.853-.921,3.289-2.871,4.432m-10.618,1.693a5.413,5.413,0,0,0,.2.5h-.4q.112-.246.2-.5m-5.6-9.362c0,.187.009.373.027.555l-2.751.208a3.5,3.5,0,0,1-3.006-1.317,3.346,3.346,0,0,1-.591-3.124c.011-.035.06-.177.073-.21a3.347,3.347,0,0,1,2.4-2.093,3.5,3.5,0,0,1,3.177.823l1.865,1.71a5.571,5.571,0,0,0-1.19,3.447m5.6,3.575a3.579,3.579,0,0,1-3.575-3.575,3.579,3.579,0,0,1,3.575-3.574,3.578,3.578,0,0,1,3.574,3.574,3.579,3.579,0,0,1-3.574,3.575m-3.133-10.956a3.5,3.5,0,0,1,.262-3.272,3.347,3.347,0,0,1,2.763-1.58c.072,0,.141,0,.218,0a3.346,3.346,0,0,1,2.761,1.58,3.5,3.5,0,0,1,.262,3.272l-.962,2.22a5.568,5.568,0,0,0-2.171-.438,5.57,5.57,0,0,0-2.171.438Zm-4.654,17.246a3.39,3.39,0,0,1-.792-2.518,3.477,3.477,0,0,1,1.58-2.632l2.383-1.546a5.617,5.617,0,0,0,3.326,2.281l-.491,2.733a3.458,3.458,0,0,1-.808,1.682Zm10.377,0a3.457,3.457,0,0,1-.808-1.682l-.491-2.734a5.616,5.616,0,0,0,3.324-2.282l2.385,1.547a3.476,3.476,0,0,1,1.58,2.632,3.39,3.39,0,0,1-.792,2.518Zm-11.427-43.775a37.026,37.026,0,0,1-8.51.662,37.022,37.022,0,0,1-8.509-.662c-2.554-.682-2.882-1.819-2.882-2.733,0-3.4,5.216-6.266,11.391-6.266s11.391,2.869,11.391,6.266c0,.914-.328,2.051-2.881,2.733m27.386,44.931a2.527,2.527,0,0,0-2.127-1.156h-5.62c3.13-1.556,4.714-3.781,4.714-6.628a8.369,8.369,0,0,0-1.535-4.723,5.384,5.384,0,0,0-.115-2.8c-.017-.054-.091-.268-.11-.319a5.414,5.414,0,0,0-3.821-3.346,5.523,5.523,0,0,0-4.856,1.16q.032-.082.06-.165a6.676,6.676,0,0,0,3.047-5.461c0-3.223-2.357-6.184-6.694-8.477,2.11-1.077,3.931-2.739,3.931-5.266,0-3.546-3.717-6.716-9.81-8.464a4.358,4.358,0,0,0,.458-2.02c0-2.318-1.468-4.456-4.133-6.02a18.623,18.623,0,0,0-9.283-2.271,18.623,18.623,0,0,0-9.283,2.271c-2.665,1.564-4.133,3.7-4.133,6.02,0,2.335,1.475,3.913,4.384,4.69a37.3,37.3,0,0,0,9.032.73,37.3,37.3,0,0,0,9.032-.73,8.22,8.22,0,0,0,2.355-.993c5.7,1.414,9.356,4.055,9.356,6.788,0,3.644-7.031,5.907-18.349,5.907s-18.349-2.264-18.349-5.907c0-1.072.574-2.7,3.308-4.391a1.013,1.013,0,0,0,.33-1.394,1.013,1.013,0,0,0-1.394-.33c-2.794,1.723-4.27,3.838-4.27,6.115a4.936,4.936,0,0,0,1.437,3.473c-6.862,2.346-10.9,6.113-10.9,10.27a6.41,6.41,0,0,0,2.339,4.887,10.752,10.752,0,0,0,1.388,1.044c-4.741,2.693-7.325,6.1-7.325,9.723,0,2.867,1.558,5.062,4.731,6.628h-3.98a2.527,2.527,0,0,0-2.127,1.156,2.527,2.527,0,0,0-.189,2.413,8.47,8.47,0,0,0,7.727,5.015h53.234a8.47,8.47,0,0,0,7.727-5.015,2.527,2.527,0,0,0-.189-2.413" transform="translate(662.205 568.229)"/>
          </g>
        </g>
      </g>
    </g>
  </g>
</svg>
