<svg xmlns="http://www.w3.org/2000/svg" xmlns:xlink="http://www.w3.org/1999/xlink" width="99" height="99.706" viewBox="0 0 99 99.706">
  <defs>
    <linearGradient id="linear-gradient" x1="0.356" y1="0.973" x2="1.356" y2="0.973" gradientUnits="objectBoundingBox">
      <stop offset="0" stop-color="#6af6e0"/>
      <stop offset="1" stop-color="#15312d"/>
    </linearGradient>
    <filter id="Elipse_12850" x="0" y="0.706" width="99" height="99" filterUnits="userSpaceOnUse">
      <feOffset dy="3" input="SourceAlpha"/>
      <feGaussianBlur stdDeviation="3" result="blur"/>
      <feFlood flood-opacity="0.161"/>
      <feComposite operator="in" in2="blur"/>
      <feComposite in="SourceGraphic"/>
    </filter>
  </defs>
  <g id="Grupo_1107580" data-name="Grupo 1107580" transform="translate(-856.333 -184.294)">
    <g id="Grupo_1107021" data-name="Grupo 1107021" transform="translate(12441.628 11943.294)">
      <path id="Trazado_906881" data-name="Trazado 906881" d="M554.69-86.614a47.094,47.094,0,0,0,40.932,52.544,47.784,47.784,0,0,0,8.085.312A47.074,47.074,0,0,0,648.166-75a47.094,47.094,0,0,0-40.932-52.544A47.094,47.094,0,0,0,554.69-86.614Zm83.092,10.323A36.635,36.635,0,0,1,596.91-44.444a36.643,36.643,0,0,1-31.846-40.881,36.635,36.635,0,0,1,40.88-31.836A36.626,36.626,0,0,1,637.782-76.291Z" transform="translate(-12137.325 -11631.091)" fill="url(#linear-gradient)"/>
      <g transform="matrix(1, 0, 0, 1, -11585.29, -11759)" filter="url(#Elipse_12850)">
        <circle id="Elipse_12850-2" data-name="Elipse 12850" cx="40.5" cy="40.5" r="40.5" transform="translate(9 6.71)" fill="#fff"/>
      </g>
    </g>
    <g id="spa_16974130" transform="translate(873.603 188.219)">
      <g id="Grupo_1107546" data-name="Grupo 1107546" transform="translate(40.821 10.87)">
        <g id="Grupo_1107545" data-name="Grupo 1107545" transform="translate(0 0)">
          <path id="Trazado_908691" data-name="Trazado 908691" d="M359.774,22.05c-.139,4.8-6.535,4.8-6.674,0-.012-2.009,3.325-6.05,3.325-6.05S359.774,20.041,359.774,22.05Z" transform="translate(-353.1 -16)" fill="#ffd503"/>
        </g>
      </g>
      <g id="Grupo_1107549" data-name="Grupo 1107549" transform="translate(43.477 17.913)">
        <g id="Grupo_1107548" data-name="Grupo 1107548" transform="translate(0 0)">
          <g id="Grupo_1107547" data-name="Grupo 1107547">
            <path id="Trazado_908692" data-name="Trazado 908692" d="M376.77,82.277a.67.67,0,0,1-.67-.67V77.67a.67.67,0,0,1,1.339,0v3.937A.67.67,0,0,1,376.77,82.277Z" transform="translate(-376.1 -77)" fill="#ffa54c"/>
          </g>
        </g>
      </g>
      <g id="Grupo_1107551" data-name="Grupo 1107551" transform="translate(1.713 59.481)">
        <g id="Grupo_1107550" data-name="Grupo 1107550" transform="translate(0 0)">
          <path id="Trazado_908693" data-name="Trazado 908693" d="M71.215,437.993a5.815,5.815,0,0,1-5.808,5.819H20.213A5.827,5.827,0,0,1,14.486,437a5.808,5.808,0,0,0,5.727,4.826H65.407A5.8,5.8,0,0,0,71.134,437,7.052,7.052,0,0,1,71.215,437.993Z" transform="translate(-14.393 -437)" fill="#235f75"/>
        </g>
      </g>
      <g id="Grupo_1107553" data-name="Grupo 1107553" transform="translate(1.794 54.666)">
        <g id="Grupo_1107552" data-name="Grupo 1107552" transform="translate(0 0)">
          <path id="Trazado_908694" data-name="Trazado 908694" d="M71.747,400.115a5.8,5.8,0,0,1-5.727,4.826H20.827a4.892,4.892,0,1,1,0-9.641H66.02A5.809,5.809,0,0,1,71.747,400.115Z" transform="translate(-15.1 -395.3)" fill="#3286a4"/>
        </g>
      </g>
      <g id="Grupo_1107556" data-name="Grupo 1107556" transform="translate(8.172 59.816)">
        <g id="Grupo_1107555" data-name="Grupo 1107555">
          <g id="Grupo_1107554" data-name="Grupo 1107554">
            <path id="Trazado_908695" data-name="Trazado 908695" d="M113.575,441.228H70.991a.664.664,0,0,1,0-1.328h42.6A.664.664,0,0,1,113.575,441.228Z" transform="translate(-70.337 -439.9)" fill="#ffa54c"/>
          </g>
        </g>
      </g>
      <g id="Grupo_1107558" data-name="Grupo 1107558" transform="translate(8.791 48.084)">
        <g id="Grupo_1107557" data-name="Grupo 1107557">
          <path id="Trazado_908696" data-name="Trazado 908696" d="M119.554,339.074a5.811,5.811,0,0,1-5.138,5.773,6.559,6.559,0,0,1-.681.035H75.7v-1.49h38.034A5.829,5.829,0,0,0,119.5,338.3,5.671,5.671,0,0,1,119.554,339.074Z" transform="translate(-75.7 -338.3)" fill="#b5e6f7"/>
        </g>
      </g>
      <g id="Grupo_1107560" data-name="Grupo 1107560" transform="translate(8.776 43.038)">
        <g id="Grupo_1107559" data-name="Grupo 1107559">
          <path id="Trazado_908697" data-name="Trazado 908697" d="M119.382,299.644a5.829,5.829,0,0,1-5.762,5.092H75.586a3.946,3.946,0,0,1,3.9-4.318h6.87a2.911,2.911,0,1,1,.162-5.819h27.111A5.794,5.794,0,0,1,119.382,299.644Z" transform="translate(-75.571 -294.598)" fill="#48c1ec"/>
        </g>
      </g>
      <g id="Grupo_1107563" data-name="Grupo 1107563" transform="translate(18.91 48.188)">
        <g id="Grupo_1107562" data-name="Grupo 1107562">
          <g id="Grupo_1107561" data-name="Grupo 1107561">
            <path id="Trazado_908698" data-name="Trazado 908698" d="M181.634,340.528H163.991a.664.664,0,0,1,0-1.328h17.643A.664.664,0,0,1,181.634,340.528Z" transform="translate(-163.337 -339.2)" fill="#ffd7b9"/>
          </g>
        </g>
      </g>
      <g id="Grupo_1107565" data-name="Grupo 1107565" transform="translate(40.787 22.52)">
        <g id="Grupo_1107564" data-name="Grupo 1107564">
          <path id="Trazado_908699" data-name="Trazado 908699" d="M359.52,118.216v19.237c-.081-.081-6.4-.023-6.72-.035v-19.2a1.316,1.316,0,0,1,1.316-1.316h4.076A1.326,1.326,0,0,1,359.52,118.216Z" transform="translate(-352.8 -116.9)" fill="#6af6e0"/>
        </g>
      </g>
      <g id="Grupo_1107567" data-name="Grupo 1107567" transform="translate(0.732 26.315)">
        <g id="Grupo_1107566" data-name="Grupo 1107566">
          <path id="Trazado_908700" data-name="Trazado 908700" d="M20.529,159A10.279,10.279,0,0,1,5.9,150.8,10.281,10.281,0,0,1,20.529,159Z" transform="translate(-5.9 -149.769)" fill="#6af6e0"/>
        </g>
      </g>
      <g id="Grupo_1107569" data-name="Grupo 1107569" transform="translate(15.35 26.315)">
        <g id="Grupo_1107568" data-name="Grupo 1107568">
          <path id="Trazado_908701" data-name="Trazado 908701" d="M147.13,150.8A10.276,10.276,0,0,1,132.5,159,10.281,10.281,0,0,1,147.13,150.8Z" transform="translate(-132.5 -149.769)" fill="#6af6e0"/>
        </g>
      </g>
      <g id="Grupo_1107571" data-name="Grupo 1107571" transform="translate(10.028 19.287)">
        <g id="Grupo_1107570" data-name="Grupo 1107570" transform="translate(0 0)">
          <path id="Trazado_908702" data-name="Trazado 908702" d="M97.077,96.809c0,.115,0,.242-.012.358A10.22,10.22,0,0,0,91.8,104.7c-.023.012-.035.023-.058.023s-.035-.023-.058-.023a10.271,10.271,0,0,0-5.265-7.528A8.513,8.513,0,0,1,91.743,88.9,8.553,8.553,0,0,1,97.077,96.809Z" transform="translate(-86.409 -88.9)" fill="#6af6e0"/>
        </g>
      </g>
      <g id="Grupo_1107573" data-name="Grupo 1107573" transform="translate(8.172 59.816)">
        <g id="Grupo_1107572" data-name="Grupo 1107572">
          <path id="Trazado_908703" data-name="Trazado 908703" d="M70.991,439.9a.664.664,0,0,0,0,1.328h42.6a.664.664,0,0,0,0-1.328Z" transform="translate(-70.337 -439.9)" fill="#231f20"/>
        </g>
      </g>
      <g id="Grupo_1107575" data-name="Grupo 1107575" transform="translate(1.067 10.2)">
        <g id="Grupo_1107574" data-name="Grupo 1107574" transform="translate(0 0)">
          <path id="Trazado_908704" data-name="Trazado 908704" d="M49.847,21.862a1.983,1.983,0,0,0-1.986,1.974V42.369H27.446A3.611,3.611,0,0,0,24.5,48.188H20.415a4.563,4.563,0,0,0-4.561,4.561v1.259c-9.006-.3-9.584,12.493-.612,12.955H60.435a6.478,6.478,0,0,0,0-12.955H58.484A6.5,6.5,0,0,0,55.9,42.519V23.836a1.974,1.974,0,0,0-1.974-1.974H52.549v-.7a4.23,4.23,0,0,0,3.337-4.238c0-2.182-3.129-6.05-3.487-6.478a.666.666,0,0,0-1.028,0c-.358.439-3.487,4.3-3.487,6.478a4.23,4.23,0,0,0,3.337,4.238v.7Zm-.635-4.942c0-1.12,1.478-3.418,2.679-4.988,1.2,1.57,2.679,3.868,2.679,4.988a2.91,2.91,0,0,1-2.009,2.864v-1.2a.67.67,0,1,0-1.339,0v1.2a2.91,2.91,0,0,1-2.009-2.864ZM65.6,60.485a5.154,5.154,0,0,1-5.15,5.15H15.253a5.15,5.15,0,0,1,0-10.3H60.447A5.147,5.147,0,0,1,65.6,60.485ZM59.708,48.858a5.152,5.152,0,0,1-5.138,5.15H17.182V52.749a3.243,3.243,0,0,1,3.233-3.233H27.3c.012-.012,17.632,0,17.643,0a.67.67,0,0,0,0-1.339H27.285a2.248,2.248,0,1,1,.162-4.492H54.558a5.2,5.2,0,0,1,5.15,5.173ZM54.581,23.836V42.369H49.189V23.836a.655.655,0,0,1,.658-.647h4.076a.655.655,0,0,1,.658.647Z" transform="translate(-8.799 -10.2)" fill="#231f20"/>
        </g>
      </g>
      <g id="Grupo_1107577" data-name="Grupo 1107577" transform="translate(0.057 18.623)">
        <g id="Grupo_1107576" data-name="Grupo 1107576">
          <path id="Trazado_908705" data-name="Trazado 908705" d="M30.268,91.273a10.83,10.83,0,0,0-8.937-.231A9.18,9.18,0,0,0,15.6,83.2a.619.619,0,0,0-.5,0,9.185,9.185,0,0,0-5.727,7.84,10.857,10.857,0,0,0-8.949.231.643.643,0,0,0-.369.67,10.926,10.926,0,0,0,15.3,8.856,10.908,10.908,0,0,0,15.288-8.856A.687.687,0,0,0,30.268,91.273ZM15.361,84.541a7.851,7.851,0,0,1,4.665,7.147,11.064,11.064,0,0,0-4.665,5.531A11.112,11.112,0,0,0,10.7,91.689,7.789,7.789,0,0,1,15.361,84.541ZM1.448,92.278a9.613,9.613,0,0,1,13.186,7.39A9.588,9.588,0,0,1,1.448,92.278ZM19.8,100.429a9.48,9.48,0,0,1-3.718-.762,9.611,9.611,0,0,1,13.186-7.4,9.534,9.534,0,0,1-9.468,8.163Z" transform="translate(-0.057 -83.15)" fill="#231f20"/>
        </g>
      </g>
    </g>
  </g>
</svg>
