<svg xmlns="http://www.w3.org/2000/svg" xmlns:xlink="http://www.w3.org/1999/xlink" width="105.615" height="106.869" viewBox="0 0 105.615 106.869">
  <defs>
    <linearGradient id="linear-gradient" x1="0.356" y1="0.973" x2="1.356" y2="0.973" gradientUnits="objectBoundingBox">
      <stop offset="0" stop-color="#6af6e0"/>
      <stop offset="1" stop-color="#15312d"/>
    </linearGradient>
    <filter id="Elipse_12850" x="0" y="1.254" width="105.615" height="105.615" filterUnits="userSpaceOnUse">
      <feOffset dy="3" input="SourceAlpha"/>
      <feGaussianBlur stdDeviation="3" result="blur"/>
      <feFlood flood-opacity="0.161"/>
      <feComposite operator="in" in2="blur"/>
      <feComposite in="SourceGraphic"/>
    </filter>
  </defs>
  <g id="Grupo_1107579" data-name="Grupo 1107579" transform="translate(-1167.253 -427.007)">
    <g id="Grupo_1107023" data-name="Grupo 1107023" transform="translate(1169 427.007)">
      <path id="Trazado_906881" data-name="Trazado 906881" d="M554.72-83.241a50.94,50.94,0,0,0,44.275,56.835,51.686,51.686,0,0,0,8.746.337A50.918,50.918,0,0,0,655.83-70.68a50.94,50.94,0,0,0-44.275-56.835A50.94,50.94,0,0,0,554.72-83.241ZM644.6-72.075a39.627,39.627,0,0,1-44.21,34.448,39.635,39.635,0,0,1-34.447-44.22,39.627,39.627,0,0,1,44.219-34.436A39.617,39.617,0,0,1,644.6-72.075Z" transform="translate(-554.325 127.909)" fill="url(#linear-gradient)"/>
      <g transform="matrix(1, 0, 0, 1, -1.75, 0)" filter="url(#Elipse_12850)">
        <circle id="Elipse_12850-2" data-name="Elipse 12850" cx="43.808" cy="43.808" r="43.808" transform="translate(9 7.25)" fill="#fff"/>
      </g>
    </g>
    <path id="Trazado_908706" data-name="Trazado 908706" d="M43.354,169.36a.016.016,0,0,1-.012-.006L38.3,150.527l-.041-.089v0c-.041-.13-.085-.257-.136-.383s-.108-.248-.165-.368l-.123-.238c-.024-.046-.05-.092-.077-.136a6.2,6.2,0,0,0-.443-.638q-.176-.218-.371-.418a5.464,5.464,0,0,0-3.908-1.639H29.425a.011.011,0,0,1-.009-.01v-2.343s0-.006,0-.009a.011.011,0,0,1-.006,0H23.369a.011.011,0,0,1-.006,0s0,.006,0,.009v2.343a.011.011,0,0,1-.01.01h-3.61a5.463,5.463,0,0,0-3.908,1.639q-.2.2-.371.418a6.181,6.181,0,0,0-.443.638c-.027.044-.053.089-.077.136l-.123.238c-.057.12-.114.244-.165.368s-.1.253-.137.383v0l-.041.089-5.04,18.827a.019.019,0,0,1-.013.006s-6.4,3.958-6.267,6.427c.046.527.516.978,1.269.6,0,0,7.69-4.24,8.1-4.652a1.992,1.992,0,0,0,.257-.3v0a2.1,2.1,0,0,0,.2-.354v0l5.35-18.846s0,0,0,0,0,11.843,0,14.075H34.432c0-2.233,0-14.079,0-14.075s0,0,0,0l5.35,18.846v0a2.1,2.1,0,0,0,.2.354v0a2.028,2.028,0,0,0,.257.3c.412.412,8.1,4.652,8.1,4.652.752.377,1.223-.074,1.269-.6C49.75,173.318,43.354,169.36,43.354,169.36Zm0,0" transform="translate(1194.778 320.857)" fill="#fce8cb"/>
    <path id="Trazado_908707" data-name="Trazado 908707" d="M41.228,166.52l-4.992-18.645a.422.422,0,0,0-.028-.077l-.025-.055c-.043-.134-.089-.266-.144-.4s-.115-.263-.183-.406l-.124-.239c-.03-.056-.06-.111-.093-.165a6.648,6.648,0,0,0-.477-.687c-.126-.157-.261-.31-.4-.454a5.917,5.917,0,0,0-4.247-1.78H27.368v-1.877a.5.5,0,0,0-.023-.147.487.487,0,0,0-.462-.341H20.845a.484.484,0,0,0-.2.045.478.478,0,0,0-.261.3.506.506,0,0,0-.024.148v1.877H17.215a5.917,5.917,0,0,0-4.248,1.782c-.14.143-.275.3-.4.453a6.646,6.646,0,0,0-.478.687c-.033.054-.064.109-.093.166l-.131.252c-.061.128-.122.26-.178.395s-.1.263-.142.4l-.025.055a.5.5,0,0,0-.029.079l-1.361,5.086a.476.476,0,1,0,.919.246l1.35-5.046.024-.051a.468.468,0,0,0,.028-.081c.036-.111.074-.221.116-.326s.1-.231.147-.329l.123-.236c.019-.036.039-.072.06-.107a5.626,5.626,0,0,1,.409-.589c.107-.134.222-.262.339-.383a4.969,4.969,0,0,1,3.569-1.5h3.611a.492.492,0,0,0,.485-.485V142.2h5.106v1.88a.492.492,0,0,0,.485.485h3.611a4.972,4.972,0,0,1,3.569,1.5c.119.122.233.251.341.384a5.629,5.629,0,0,1,.409.589c.021.035.041.071.059.105l.116.223c.054.113.107.228.153.341s.081.215.116.326a.524.524,0,0,0,.03.084l.024.051,5.03,18.788a.482.482,0,0,0,.107.2.5.5,0,0,0,.129.1c2.381,1.475,6.111,4.4,6.029,5.971a.347.347,0,0,1-.148.278.475.475,0,0,1-.417-.051c-2.889-1.592-7.617-4.245-8-4.577a1.5,1.5,0,0,1-.175-.2c-.007-.013-.017-.027-.025-.039a1.571,1.571,0,0,1-.141-.241l-5.342-18.815h0a.492.492,0,0,0-.642-.313c-.2.083-.263.109-.284.443H31.44a.548.548,0,0,0,0,.055c-.006.154-.007.367-.007.665l0,12.878H16.294l0-12.878c0-.3,0-.51-.007-.665a.412.412,0,0,0,0-.055H16.28c-.02-.334-.085-.36-.284-.443a.493.493,0,0,0-.643.313l-5.34,18.811a1.632,1.632,0,0,1-.143.245.366.366,0,0,0-.025.038,1.576,1.576,0,0,1-.173.2c-.387.335-5.114,2.987-7.987,4.572a.494.494,0,0,1-.434.059.336.336,0,0,1-.147-.261c-.082-1.59,3.647-4.512,6.028-5.989a.488.488,0,0,0,.129-.1.482.482,0,0,0,.107-.2l2.554-9.537A.476.476,0,0,0,9,157.166L6.5,166.52c-1.135.718-6.477,4.231-6.344,6.781a1.288,1.288,0,0,0,.632,1.025,1.38,1.38,0,0,0,1.34-.049c1.818-1,7.782-4.306,8.2-4.727a2.473,2.473,0,0,0,.318-.376.359.359,0,0,0,.02-.033,2.5,2.5,0,0,0,.232-.419c.006-.015.012-.032.017-.048L15.341,153.1c0,1.423,0,3.117,0,4.719v5.955a.476.476,0,0,0,.475.475h16.09a.476.476,0,0,0,.475-.475l0-5.955c0-1.6,0-3.3,0-4.72l4.43,15.6a.393.393,0,0,0,.018.045,2.474,2.474,0,0,0,.223.4l.02.033a2.488,2.488,0,0,0,.313.371c.427.427,6.391,3.73,8.226,4.741a1.631,1.631,0,0,0,.734.189,1.2,1.2,0,0,0,.589-.149,1.3,1.3,0,0,0,.633-1.041c.132-2.535-5.209-6.047-6.344-6.764Zm0,0" transform="translate(1197.302 323.385)" fill="#3a312a"/>
    <path id="Trazado_908708" data-name="Trazado 908708" d="M76.627,181.911l-5.041-18.827-.041-.089v0c-.041-.13-.085-.257-.136-.383s-.108-.248-.165-.368L71.121,162c-.024-.046-.05-.092-.077-.136a6.212,6.212,0,0,0-.443-.638q-.176-.218-.371-.418a5.464,5.464,0,0,0-3.908-1.639H62.73a3.577,3.577,0,0,1-6.156,0H53.025a5.464,5.464,0,0,0-3.908,1.639q-.2.2-.371.418a6.189,6.189,0,0,0-.443.638c-.027.044-.053.089-.077.136l-.123.238c-.057.12-.114.244-.165.368s-.1.253-.136.383v0l-.041.089-5.04,18.827a.016.016,0,0,1-.012.006,37.639,37.639,0,0,0,3.562,1.714s0,0,0,0l5.351-18.846s0,0,0,0,0,11.843,0,14.075h16.09c0-2.232,0-14.079,0-14.075s0,0,0,0l5.35,18.846s0,0,0,0a37.649,37.649,0,0,0,3.563-1.714.016.016,0,0,1-.013-.006Zm0,0" transform="translate(1161.493 308.299)" fill="#3286a4"/>
    <path id="Trazado_908709" data-name="Trazado 908709" d="M74.575,179.279a.523.523,0,0,0-.038-.1l-5.017-18.74a.423.423,0,0,0-.028-.077l-.025-.055c-.043-.134-.089-.266-.144-.4s-.115-.263-.183-.406l-.124-.239c-.03-.056-.06-.111-.093-.165a6.647,6.647,0,0,0-.477-.687c-.126-.157-.261-.31-.4-.454a5.917,5.917,0,0,0-4.247-1.78H60.2a.475.475,0,0,0-.418.248,3.1,3.1,0,0,1-5.32,0,.475.475,0,0,0-.418-.248H50.5a5.918,5.918,0,0,0-4.248,1.782c-.14.143-.275.3-.4.453a6.647,6.647,0,0,0-.478.687c-.033.054-.064.109-.093.166l-.131.252c-.061.128-.122.26-.178.395s-.1.262-.142.4l-.025.055a.5.5,0,0,0-.029.079l-1.361,5.086a.476.476,0,1,0,.919.246l1.35-5.046.024-.051a.467.467,0,0,0,.028-.081c.036-.111.074-.221.116-.326s.1-.231.147-.329l.123-.236c.019-.036.039-.072.06-.107A5.622,5.622,0,0,1,46.59,159c.107-.134.222-.262.339-.383a4.969,4.969,0,0,1,3.569-1.5h3.278a4.075,4.075,0,0,0,6.7,0h3.32a4.972,4.972,0,0,1,3.569,1.5c.119.122.233.251.341.384a5.629,5.629,0,0,1,.409.589c.021.035.041.071.059.105l.116.223c.054.113.107.228.153.341s.081.215.116.326a.522.522,0,0,0,.03.084l.024.051,4.934,18.431c-1.033.538-2.107,1.078-2.676,1.338l-5.212-18.362h0a.492.492,0,0,0-.642-.313c-.2.083-.264.109-.284.443h-.006a.412.412,0,0,0,0,.055c-.007.154-.007.367-.007.665l0,12.878H49.577l0-12.878c0-.3,0-.51-.007-.665a.55.55,0,0,0,0-.055h-.006c-.021-.334-.085-.36-.284-.443a.492.492,0,0,0-.642.313L43.424,180.49c-.57-.26-1.643-.8-2.676-1.338l2.458-9.18a.476.476,0,1,0-.919-.246l-2.53,9.45a.468.468,0,0,0-.038.1.476.476,0,0,0,.241.535c3.565,1.872,3.7,1.826,3.933,1.748a.5.5,0,0,0,.293-.279c.006-.015.012-.032.017-.048l4.422-15.578c0,1.423,0,3.117,0,4.719v5.955a.476.476,0,0,0,.475.475h16.09a.476.476,0,0,0,.475-.475l0-5.955c0-1.6,0-3.3,0-4.72l4.43,15.6a.389.389,0,0,0,.018.045.5.5,0,0,0,.284.259.406.406,0,0,0,.142.028c.258,0,.893-.255,3.791-1.776a.477.477,0,0,0,.24-.536Zm0,0" transform="translate(1164.019 310.824)" fill="#3a312a"/>
    <path id="Trazado_908710" data-name="Trazado 908710" d="M49.444,305.16l-19.9-12.124a3.029,3.029,0,0,0-3.151,0L6.484,305.16a3.028,3.028,0,0,0,1.576,5.615H47.869a3.028,3.028,0,0,0,1.576-5.615Zm0,0" transform="translate(1193.202 196.025)" fill="#fce8cb"/>
    <path id="Trazado_908711" data-name="Trazado 908711" d="M47.148,302.22,27.244,290.1a3.494,3.494,0,0,0-3.645,0L3.694,302.22a3.5,3.5,0,0,0,1.823,6.5H40.6a.475.475,0,0,0,0-.951H5.517a2.553,2.553,0,0,1-1.329-4.734l19.905-12.124a2.543,2.543,0,0,1,2.656,0l19.9,12.124a2.553,2.553,0,0,1-1.329,4.734h-.637a.475.475,0,1,0,0,.951h.637a3.5,3.5,0,0,0,1.823-6.5Zm0,0" transform="translate(1195.745 198.558)" fill="#3a312a"/>
    <path id="Trazado_908712" data-name="Trazado 908712" d="M43.913,103.336c-.309,3.666-4.128,4.244-4.128,4.244,3.279.155,4.1,4.457,4.1,4.457.07-3.068,4.222-4.5,4.222-4.5-3.11-.186-4.191-4.2-4.191-4.2Zm0,0" transform="translate(1163.952 355.286)" fill="#ffd503"/>
    <path id="Trazado_908713" data-name="Trazado 908713" d="M45.608,104.537c-2.728-.163-3.751-3.812-3.76-3.849a.476.476,0,0,0-.933.084c-.272,3.239-3.587,3.793-3.726,3.814a.476.476,0,0,0,.05.945c2.862.135,3.645,4.032,3.652,4.071a.476.476,0,0,0,.467.386l.04,0a.475.475,0,0,0,.436-.463c.061-2.7,3.864-4.051,3.9-4.064a.475.475,0,0,0-.127-.924Zm-4.3,3.279A5.54,5.54,0,0,0,38.9,105a5.1,5.1,0,0,0,2.6-2.623,5.809,5.809,0,0,0,2.642,2.766A6.754,6.754,0,0,0,41.308,107.816Zm0,0" transform="translate(1166.476 357.81)" fill="#3a312a"/>
    <path id="Trazado_908714" data-name="Trazado 908714" d="M6.931,137.3a3.473,3.473,0,0,1-2.92,3c2.32.109,2.9,3.152,2.9,3.152.049-2.169,2.987-3.184,2.987-3.184-2.2-.132-2.965-2.97-2.965-2.97Zm0,0" transform="translate(1194.055 326.709)" fill="#ffd503"/>
    <path id="Trazado_908715" data-name="Trazado 908715" d="M7.4,137.265c-1.828-.109-2.527-2.595-2.533-2.619a.476.476,0,0,0-.933.084A2.978,2.978,0,0,1,1.416,137.3a.475.475,0,0,0,.049.945c1.913.09,2.449,2.741,2.453,2.767a.476.476,0,0,0,.467.386h.04a.476.476,0,0,0,.436-.463c.041-1.81,2.641-2.737,2.667-2.746a.476.476,0,0,0-.128-.924Zm-3.038,2.154a4.061,4.061,0,0,0-1.41-1.673A3.792,3.792,0,0,0,4.5,136.187a4.246,4.246,0,0,0,1.566,1.656,4.959,4.959,0,0,0-1.7,1.576Zm0,0" transform="translate(1196.58 329.235)" fill="#3a312a"/>
    <path id="Trazado_908716" data-name="Trazado 908716" d="M6.931,83.98a3.474,3.474,0,0,1-2.92,3c2.32.109,2.9,3.152,2.9,3.152.049-2.17,2.987-3.184,2.987-3.184-2.2-.132-2.965-2.97-2.965-2.97Zm0,0" transform="translate(1194.055 371.574)" fill="#ffd503"/>
    <path id="Trazado_908717" data-name="Trazado 908717" d="M7.4,83.952c-1.828-.11-2.527-2.595-2.533-2.62a.476.476,0,0,0-.933.084,2.978,2.978,0,0,1-2.517,2.572.476.476,0,0,0,.049.945c1.913.09,2.449,2.74,2.453,2.766a.476.476,0,0,0,.467.387l.04,0a.475.475,0,0,0,.436-.463c.041-1.81,2.641-2.736,2.667-2.746a.475.475,0,0,0-.128-.924ZM4.361,86.106a4.058,4.058,0,0,0-1.41-1.673A3.8,3.8,0,0,0,4.5,82.875,4.24,4.24,0,0,0,6.062,84.53a4.962,4.962,0,0,0-1.7,1.576Zm0,0" transform="translate(1196.58 374.098)" fill="#3a312a"/>
    <path id="Trazado_908718" data-name="Trazado 908718" d="M124.424,212.813a4.584,4.584,0,1,0,4.583,4.583A4.584,4.584,0,0,0,124.424,212.813Zm0,0" transform="translate(1096.585 263.161)" fill="#87796f"/>
    <path id="Trazado_908719" data-name="Trazado 908719" d="M121.9,209.813a5.059,5.059,0,1,0,5.059,5.059A5.065,5.065,0,0,0,121.9,209.813Zm0,9.167a4.108,4.108,0,1,1,4.108-4.108A4.113,4.113,0,0,1,121.9,218.98Zm0,0" transform="translate(1099.109 265.686)" fill="#3a312a"/>
    <path id="Trazado_908720" data-name="Trazado 908720" d="M90.39,297.41a1.8,1.8,0,1,0,1.8,1.8A1.8,1.8,0,0,0,90.39,297.41Zm0,0" transform="translate(1122.879 191.972)" fill="#fce8cb" fill-rule="evenodd"/>
    <path id="Trazado_908721" data-name="Trazado 908721" d="M87.866,294.41a2.273,2.273,0,1,0,2.273,2.273A2.275,2.275,0,0,0,87.866,294.41Zm0,3.595a1.322,1.322,0,1,1,1.322-1.322A1.323,1.323,0,0,1,87.866,298Zm0,0" transform="translate(1125.403 194.496)" fill="#3a312a"/>
    <path id="Trazado_908722" data-name="Trazado 908722" d="M189.352,297.41a1.8,1.8,0,1,0,1.8,1.8A1.8,1.8,0,0,0,189.352,297.41Zm0,0" transform="translate(1039.602 191.972)" fill="#fce8cb" fill-rule="evenodd"/>
    <path id="Trazado_908723" data-name="Trazado 908723" d="M186.824,294.41a2.273,2.273,0,1,0,2.273,2.273A2.275,2.275,0,0,0,186.824,294.41Zm0,3.595a1.322,1.322,0,1,1,1.322-1.322A1.324,1.324,0,0,1,186.824,298Zm0,0" transform="translate(1042.129 194.496)" fill="#3a312a"/>
    <path id="Trazado_908724" data-name="Trazado 908724" d="M107.114,252.984a7.966,7.966,0,0,0-7.966,7.966c0,4.4,4.407,11.153,7.966,11.153,3.729,0,7.966-6.753,7.966-11.153A7.966,7.966,0,0,0,107.114,252.984Zm0,0" transform="translate(1113.997 229.357)" fill="#fce8cb"/>
    <path id="Trazado_908725" data-name="Trazado 908725" d="M104.59,249.984a8.451,8.451,0,0,0-8.442,8.442c0,4.591,4.528,11.628,8.442,11.628,4,0,8.442-6.931,8.442-11.628A8.451,8.451,0,0,0,104.59,249.984Zm0,19.119c-3.306,0-7.491-6.62-7.491-10.678a7.491,7.491,0,1,1,14.981,0C112.081,262.544,107.991,269.1,104.59,269.1Zm0,0" transform="translate(1116.522 231.881)" fill="#3a312a"/>
    <path id="Trazado_908726" data-name="Trazado 908726" d="M137.368,332.86a.475.475,0,0,0-.612.279A1.856,1.856,0,0,1,135,334.2a1.777,1.777,0,0,1-1.768-1.1.475.475,0,0,0-.859.409A2.706,2.706,0,0,0,135,335.148a2.8,2.8,0,0,0,2.643-1.676A.476.476,0,0,0,137.368,332.86Zm0,0" transform="translate(1086.073 162.167)" fill="#3a312a"/>
    <path id="Trazado_908727" data-name="Trazado 908727" d="M164.106,246.943a12.224,12.224,0,0,0-.62-2.452c-1.391-3.714-4.021-6.559-8.005-7.022a13.707,13.707,0,0,0,1.106,4.132,12.9,12.9,0,0,0,1.621,2.462,21.4,21.4,0,0,0,6.127,5.276C164.289,248.534,164.228,247.732,164.106,246.943Zm0,0" transform="translate(1066.593 242.413)" fill="#87796f"/>
    <path id="Trazado_908728" data-name="Trazado 908728" d="M162.052,244.346a12.561,12.561,0,0,0-.646-2.548c-1.6-4.282-4.586-6.884-8.4-7.327a.475.475,0,0,0-.526.537,14.193,14.193,0,0,0,1.148,4.274,13.265,13.265,0,0,0,1.68,2.554,21.989,21.989,0,0,0,6.265,5.392.476.476,0,0,0,.706-.441C162.247,246.113,162.187,245.227,162.052,244.346Zm-6-3.107a12.341,12.341,0,0,1-1.564-2.37,12.121,12.121,0,0,1-.97-3.359c3.143.6,5.612,2.929,7,6.622a11.665,11.665,0,0,1,.6,2.358c.076.494.128.994.165,1.454a21.4,21.4,0,0,1-5.223-4.7Zm0,0" transform="translate(1069.118 244.939)" fill="#3a312a"/>
    <path id="Trazado_908729" data-name="Trazado 908729" d="M97.659,237.035c-4.884,0-9.612,4.1-9.495,9.151.011.514.049,1.03.109,1.544,5.22-2.255,10.312-5.183,13.811-9.588a8.9,8.9,0,0,0-4.425-1.108Zm0,0" transform="translate(1123.242 242.778)" fill="#87796f"/>
    <path id="Trazado_908730" data-name="Trazado 908730" d="M100.025,235.523a.478.478,0,0,0-.233-.323,9.394,9.394,0,0,0-4.658-1.169,10.3,10.3,0,0,0-7.3,3.15,8.986,8.986,0,0,0-2.675,6.487c.011.512.049,1.047.112,1.589a.476.476,0,0,0,.661.381c6.511-2.813,10.957-5.9,13.994-9.728A.474.474,0,0,0,100.025,235.523ZM86.158,244.5c-.022-.292-.037-.578-.043-.857a8.041,8.041,0,0,1,2.4-5.8,9.473,9.473,0,0,1,6.615-2.864,8.587,8.587,0,0,1,3.686.786C95.99,239.145,91.939,241.939,86.158,244.5Zm0,0" transform="translate(1125.767 245.306)" fill="#3a312a"/>
    <path id="Trazado_908731" data-name="Trazado 908731" d="M127.391,298.551a.778.778,0,1,1-.778-.778A.778.778,0,0,1,127.391,298.551Zm0,0" transform="translate(1091.539 191.666)" fill="#3a312a"/>
    <path id="Trazado_908732" data-name="Trazado 908732" d="M162.1,297.773a.778.778,0,1,0,.778.778A.777.777,0,0,0,162.1,297.773Zm0,0" transform="translate(1061.676 191.666)" fill="#3a312a"/>
    <path id="Trazado_908733" data-name="Trazado 908733" d="M113.824,310.945c-.74,0-1.339.448-1.339,1s.6,1,1.339,1,1.34-.448,1.34-1S114.564,310.945,113.824,310.945Zm0,0" transform="translate(1102.774 180.582)" fill="#f5978a"/>
    <path id="Trazado_908734" data-name="Trazado 908734" d="M168.925,310.945c-.739,0-1.339.448-1.339,1s.6,1,1.339,1,1.339-.448,1.339-1S169.665,310.945,168.925,310.945Zm0,0" transform="translate(1056.406 180.582)" fill="#f5978a"/>
    <path id="Trazado_908735" data-name="Trazado 908735" d="M74.483,374.035h-11.7v5.273h11.7a2.636,2.636,0,1,0,0-5.273Zm0,0" transform="translate(1144.596 127.492)" fill="#fce8cb" fill-rule="evenodd"/>
    <path id="Trazado_908736" data-name="Trazado 908736" d="M71.959,371.035h-11.7a.475.475,0,0,0,0,.951h11.7a2.161,2.161,0,1,1,0,4.322h-11.7a.475.475,0,1,0,0,.951h11.7a3.112,3.112,0,1,0,0-6.224Zm0,0" transform="translate(1147.121 130.016)" fill="#3a312a"/>
    <path id="Trazado_908737" data-name="Trazado 908737" d="M122.049,374.035c-1.9,0-3.443,1.18-3.443,2.637s1.542,2.636,3.443,2.636h15.277v-5.273Zm0,0" transform="translate(1097.624 127.492)" fill="#fce8cb" fill-rule="evenodd"/>
    <path id="Trazado_908738" data-name="Trazado 908738" d="M134.805,376.309H119.528c-1.636,0-2.967-.97-2.967-2.161s1.331-2.161,2.967-2.161h15.277a.475.475,0,0,0,0-.951H119.528c-2.16,0-3.918,1.4-3.918,3.112s1.758,3.112,3.918,3.112h15.277a.475.475,0,1,0,0-.951Zm0,0" transform="translate(1100.144 130.015)" fill="#3a312a"/>
    <path id="Trazado_908739" data-name="Trazado 908739" d="M102.561,3a8.947,8.947,0,0,0-8.889,7.92,9.471,9.471,0,0,1,8.634-5.893,9.3,9.3,0,0,1,1.811.173c.031,0,.06.014.089.019.18.038.355.079.529.128.059.017.12.033.18.053.139.041.279.087.414.134.067.024.137.048.2.075.125.048.248.1.368.156.168.074.331.154.495.238.055.031.115.059.173.091a10.651,10.651,0,0,1,4.575,5.76,10.041,10.041,0,0,1,.317,1,8.457,8.457,0,0,0,.05-.905A8.947,8.947,0,0,0,102.561,3Zm0,0" transform="translate(1118.605 439.72)" fill="#235f75"/>
    <path id="Trazado_908740" data-name="Trazado 908740" d="M100.036,0a9.408,9.408,0,0,0-9.361,8.343.475.475,0,0,0,.917.222,8.832,8.832,0,0,1,9.934-5.418l.056.012c.171.037.337.075.518.126.048.014.1.027.156.046.131.038.261.081.386.125l.046.017c.048.018.1.035.148.055.115.044.228.093.345.147.16.071.315.146.454.217.037.02.074.04.113.06l.062.032A10.182,10.182,0,0,1,108.173,9.5a9.468,9.468,0,0,1,.3.953.476.476,0,0,0,.459.355h.036a.475.475,0,0,0,.437-.423,8.965,8.965,0,0,0,.053-.957A9.435,9.435,0,0,0,100.036,0Zm4.233,3.151-.085-.045c-.027-.014-.055-.028-.1-.051-.171-.088-.343-.171-.514-.247-.129-.059-.261-.116-.393-.167-.056-.022-.115-.043-.172-.063l-.045-.017c-.144-.051-.292-.1-.428-.139-.059-.019-.117-.035-.2-.058-.181-.05-.367-.094-.582-.139l-.07-.015a9.882,9.882,0,0,0-1.9-.181,10.032,10.032,0,0,0-7,3.012,8.479,8.479,0,0,1,15.482,2.346,10.3,10.3,0,0,0-3.992-4.235Zm0,0" transform="translate(1121.13 442.244)" fill="#3a312a"/>
    <path id="Trazado_908741" data-name="Trazado 908741" d="M92.917,79.253a1.785,1.785,0,1,1-1.785-1.784,1.785,1.785,0,0,1,1.785,1.784Zm0,0" transform="translate(1122.244 377.054)" fill="#fce8cb" fill-rule="evenodd"/>
    <path id="Trazado_908742" data-name="Trazado 908742" d="M88.608,74.465a2.26,2.26,0,1,0,2.26,2.26A2.263,2.263,0,0,0,88.608,74.465Zm0,3.57a1.309,1.309,0,1,1,1.309-1.309A1.312,1.312,0,0,1,88.608,78.035Zm0,0" transform="translate(1124.769 379.582)" fill="#3a312a"/>
    <path id="Trazado_908743" data-name="Trazado 908743" d="M191.206,79.253a1.785,1.785,0,1,1-1.784-1.784,1.785,1.785,0,0,1,1.784,1.784Zm0,0" transform="translate(1039.534 377.054)" fill="#fce8cb" fill-rule="evenodd"/>
    <path id="Trazado_908744" data-name="Trazado 908744" d="M186.9,74.465a2.26,2.26,0,1,0,2.26,2.26A2.263,2.263,0,0,0,186.9,74.465Zm0,3.57a1.309,1.309,0,1,1,1.309-1.309A1.311,1.311,0,0,1,186.9,78.035Zm0,0" transform="translate(1042.057 379.582)" fill="#3a312a"/>
    <path id="Trazado_908745" data-name="Trazado 908745" d="M107.744,33.344a7.912,7.912,0,0,0-7.912,7.912c0,4.37,4.377,11.077,7.912,11.077,3.7,0,7.912-6.707,7.912-11.077A7.911,7.911,0,0,0,107.744,33.344Zm0,0" transform="translate(1113.421 414.185)" fill="#fce8cb"/>
    <path id="Trazado_908746" data-name="Trazado 908746" d="M105.22,30.344a8.4,8.4,0,0,0-8.388,8.387c0,4.562,4.5,11.552,8.388,11.552,3.969,0,8.387-6.886,8.387-11.552A8.4,8.4,0,0,0,105.22,30.344Zm0,18.988c-3.282,0-7.437-6.572-7.437-10.6a7.436,7.436,0,0,1,14.873,0C112.656,42.821,108.6,49.332,105.22,49.332Zm0,0" transform="translate(1115.946 416.71)" fill="#3a312a"/>
    <path id="Trazado_908747" data-name="Trazado 908747" d="M137.778,112.652a.474.474,0,0,0-.612.278,1.84,1.84,0,0,1-1.737,1.05,1.763,1.763,0,0,1-1.753-1.087.475.475,0,1,0-.859.409,2.691,2.691,0,0,0,2.612,1.63,2.78,2.78,0,0,0,2.627-1.667.476.476,0,0,0-.278-.612Zm0,0" transform="translate(1085.703 347.473)" fill="#3a312a"/>
    <path id="Trazado_908748" data-name="Trazado 908748" d="M127.109,77.824a.772.772,0,1,0,.772.772A.773.773,0,0,0,127.109,77.824Zm0,0" transform="translate(1091.118 376.755)" fill="#3a312a"/>
    <path id="Trazado_908749" data-name="Trazado 908749" d="M162.359,77.824a.772.772,0,1,0,.772.772A.772.772,0,0,0,162.359,77.824Zm0,0" transform="translate(1061.455 376.755)" fill="#3a312a"/>
    <path id="Trazado_908750" data-name="Trazado 908750" d="M114.409,90.906c-.735,0-1.33.446-1.33.995s.6.994,1.33.994,1.33-.446,1.33-.994S115.143,90.906,114.409,90.906Zm0,0" transform="translate(1102.274 365.746)" fill="#f5978a"/>
    <path id="Trazado_908751" data-name="Trazado 908751" d="M169.135,90.906c-.735,0-1.33.446-1.33.995s.6.994,1.33.994,1.33-.446,1.33-.994S169.869,90.906,169.135,90.906Zm0,0" transform="translate(1056.222 365.746)" fill="#f5978a"/>
    <path id="Trazado_908752" data-name="Trazado 908752" d="M163.57,25.326a11.731,11.731,0,0,0-.6-2.362c-1.34-3.575-3.872-6.314-7.708-6.761a13.206,13.206,0,0,0,1.064,3.979,12.421,12.421,0,0,0,1.562,2.37,20.588,20.588,0,0,0,5.9,5.079C163.748,26.857,163.688,26.085,163.57,25.326Zm0,0" transform="translate(1066.774 428.609)" fill="#87796f"/>
    <path id="Trazado_908753" data-name="Trazado 908753" d="M161.515,22.727a12.135,12.135,0,0,0-.622-2.455c-1.547-4.129-4.423-6.639-8.1-7.067a.476.476,0,0,0-.526.537,13.866,13.866,0,0,0,1.108,4.121A12.771,12.771,0,0,0,155,20.325a21.173,21.173,0,0,0,6.037,5.2.476.476,0,0,0,.707-.441c-.036-.651-.093-1.506-.225-2.353Zm-5.779-3a11.891,11.891,0,0,1-1.5-2.278,11.63,11.63,0,0,1-.928-3.2c3.008.584,5.371,2.82,6.7,6.36a11.22,11.22,0,0,1,.573,2.267c.071.461.12.929.155,1.363a20.617,20.617,0,0,1-4.994-4.507Zm0,0" transform="translate(1069.3 431.135)" fill="#3a312a"/>
    <path id="Trazado_908754" data-name="Trazado 908754" d="M99.6,15.789c-4.7,0-9.254,3.949-9.141,8.811.011.495.047.992.1,1.487,5.026-2.172,9.929-4.99,13.3-9.231a8.567,8.567,0,0,0-4.26-1.067Zm0,0" transform="translate(1121.311 428.958)" fill="#87796f"/>
    <path id="Trazado_908755" data-name="Trazado 908755" d="M101.8,14.24a.476.476,0,0,0-.234-.323,9.061,9.061,0,0,0-4.493-1.127,9.936,9.936,0,0,0-7.037,3.038,8.663,8.663,0,0,0-2.58,6.258c.011.492.046,1.007.108,1.532a.474.474,0,0,0,.235.357.469.469,0,0,0,.238.064A.477.477,0,0,0,88.226,24c6.271-2.709,10.555-5.687,13.481-9.371a.476.476,0,0,0,.094-.387ZM88.447,22.863c-.02-.272-.034-.539-.039-.8a7.72,7.72,0,0,1,2.309-5.572,9.1,9.1,0,0,1,6.356-2.752,8.26,8.26,0,0,1,3.52.745c-2.717,3.236-6.605,5.917-12.146,8.378Zm0,0" transform="translate(1123.837 431.482)" fill="#3a312a"/>
    <path id="Trazado_908756" data-name="Trazado 908756" d="M136.2,151.458a4.734,4.734,0,0,1-2.552-.884v.872a4.734,4.734,0,0,0,2.552.884,4.815,4.815,0,0,0,2.551-.852v-.872A4.815,4.815,0,0,1,136.2,151.458Zm0,0" transform="translate(1084.962 315.535)" fill="#ccae8b"/>
    <g id="Grupo_1107578" data-name="Grupo 1107578" transform="translate(1211.879 445.347)">
      <path id="Trazado_908757" data-name="Trazado 908757" d="M144.849,215.816a4.055,4.055,0,0,0-.736.066,4.117,4.117,0,0,1,3.268,3.17.532.532,0,0,1,.057.016c.178.048.352.1.526.162.041.016.082.032.124.045.171.063.339.13.5.2l.117.051c.079.035.159.07.235.108A4.112,4.112,0,0,0,144.849,215.816Zm0,0" transform="translate(-135.72 -184.713)" fill="#6b5b51"/>
      <path id="Trazado_908758" data-name="Trazado 908758" d="M179.266,255.84a11.419,11.419,0,0,0-.6-2.355,10.747,10.747,0,0,0-4.2-5.528c-.133.162-.272.323-.412.485a11.2,11.2,0,0,1,3.509,5.043,11.415,11.415,0,0,1,.6,2.355c.032.215.063.431.085.647.39.285.786.558,1.186.808C179.4,256.835,179.342,256.334,179.266,255.84Zm0,0" transform="translate(-160.916 -211.76)" fill="#6b5b51"/>
      <path id="Trazado_908759" data-name="Trazado 908759" d="M101.922,241.055a33.435,33.435,0,0,1-10.708,7.418,7.347,7.347,0,0,0-.054,1.084c.007.282.022.567.045.859,5.782-2.564,9.833-5.36,12.66-8.736A7.893,7.893,0,0,0,101.922,241.055Zm0,0" transform="translate(-91.157 -205.952)" fill="#6b5b51"/>
      <path id="Trazado_908760" data-name="Trazado 908760" d="M103.617,19.574a31.258,31.258,0,0,1-10.106,7.17,7.045,7.045,0,0,0-.051,1.03q.009.39.038.8c5.54-2.463,9.43-5.142,12.146-8.378a7.789,7.789,0,0,0-2.028-.621Zm0,0" transform="translate(-93.094 -19.574)" fill="#6b5b51"/>
      <path id="Trazado_908761" data-name="Trazado 908761" d="M177.951,34.006a11.263,11.263,0,0,0-.571-2.267,10.361,10.361,0,0,0-4.029-5.306q-.214.262-.437.514a10.838,10.838,0,0,1,3.3,4.793,11.512,11.512,0,0,1,.574,2.267c.025.168.047.336.066.5.409.307.827.6,1.249.862-.035-.434-.082-.9-.155-1.363Zm0,0" transform="translate(-159.956 -25.346)" fill="#6b5b51"/>
    </g>
  </g>
</svg>
